<svg version="1.1" xmlns="http://www.w3.org/2000/svg" xmlns:xlink="http://www.w3.org/1999/xlink" width="290.04571" height="152.91196" viewBox="0,0,290.04571,152.91196"><g transform="translate(-94.96633,-90.83804)"><g stroke-miterlimit="10"><path d="M95.50001,243.5v-127h289v127z" fill="#ffffff" stroke="#000000" stroke-width="0.5"/><path d="M95.21633,116.16253v-22.44913h289.54571v22.44913z" fill-opacity="0.50196" fill="#ffffff" stroke="#000000" stroke-width="0.5"/><path d="M98.72102,104.88195c0,-5.11212 4.14419,-9.2563 9.2563,-9.2563c5.11212,0 9.2563,4.14419 9.2563,9.2563c0,5.11212 -4.14419,9.2563 -9.2563,9.2563c-5.11212,0 -9.2563,-4.14419 -9.2563,-9.2563z" fill="#0000ff" stroke="#000000" stroke-width="0.5"/><text transform="translate(98.05198,112.18833) scale(0.5,0.5)" font-size="40" xml:space="preserve" fill="#ffffff" stroke="none" stroke-width="1" font-family="Sans Serif" font-weight="normal" text-anchor="start"><tspan x="0" dy="0">？</tspan></text><text transform="translate(117.49345,112.25336) scale(0.5,0.5)" font-size="40" xml:space="preserve" fill="#000000" stroke="none" stroke-width="1" font-family="Sans Serif" font-weight="normal" text-anchor="start"><tspan x="0" dy="0">デバイス情報</tspan></text><text transform="translate(103.56481,137.6439) scale(0.5,0.5)" font-size="40" xml:space="preserve" fill="#000000" stroke="none" stroke-width="1" font-family="Sans Serif" font-weight="normal" text-anchor="start"><tspan x="0" dy="0">あなたのデバイス情報</tspan></text><text transform="translate(96.72433,146.98679) scale(0.22404,0.22404)" font-size="40" xml:space="preserve" fill="#000000" stroke="none" stroke-width="1" font-family="Sans Serif" font-weight="normal" text-anchor="start"><tspan x="0" dy="0">※このシミュレーターのではなく、あなたのデバイス自体のものです。</tspan></text></g></g></svg>